<svg width="41" height="51" viewBox="0 0 41 51" fill="none" xmlns="http://www.w3.org/2000/svg">
<g filter="url(#filter0_d_124_21378)">
<path d="M19.89 0.507084C19.8216 0.521488 19.6847 0.553896 19.5839 0.5719C19.4867 0.593505 19.3138 0.647518 19.2058 0.687128C19.0978 0.730338 18.9646 0.777149 18.9105 0.795154C18.7233 0.852768 18.284 1.10483 17.9995 1.31368C17.643 1.58014 17.1965 2.03385 16.9949 2.34353C16.7788 2.67121 16.4691 3.28336 16.4691 3.38058C16.4691 3.40218 16.4367 3.49221 16.3971 3.58223L16.3287 3.74787L15.1836 3.75507L14.0386 3.76587L14.0278 5.51229C14.0206 7.01746 14.0278 7.29112 14.0782 7.48917C14.1502 7.77724 14.269 8.05091 14.413 8.26336C14.5319 8.4362 14.874 8.78909 14.9208 8.78909C14.9388 8.78909 14.9748 8.81069 15 8.8359C15.0792 8.91872 15.4681 9.08436 15.731 9.15277C15.9686 9.21759 16.2459 9.22119 20.5741 9.22119C24.9384 9.22119 25.1797 9.21759 25.4389 9.15277C26.2851 8.94392 26.9045 8.33178 27.1061 7.50358C27.1565 7.29112 27.1637 7.03546 27.1565 5.51229L27.1457 3.76587L25.9971 3.74787L24.8448 3.72986L24.7764 3.54982C24.5999 3.09611 24.5603 2.99529 24.4559 2.79364C24.031 1.97264 23.336 1.30648 22.461 0.881575C22.2413 0.773549 22.0397 0.687128 22.0109 0.687128C21.9857 0.687128 21.8993 0.665523 21.8164 0.636716C21.4672 0.517887 21.2871 0.492681 20.6642 0.485479C20.3077 0.481878 19.9584 0.489079 19.89 0.507084ZM21.1611 2.68921C21.4203 2.76843 21.568 2.83685 21.7984 2.98448C22.0073 3.11772 22.3782 3.4814 22.461 3.63624C22.6482 3.97832 22.7563 4.3096 22.7851 4.61208C22.8103 4.87854 22.7563 5.43308 22.6987 5.49069C22.6806 5.50869 22.6626 5.5519 22.6626 5.58071C22.6626 5.72475 22.4142 6.11724 22.1549 6.3801C21.9389 6.59976 21.82 6.68618 21.5788 6.80141C21.2871 6.94184 20.8334 7.06067 20.5921 7.06067C20.3509 7.06067 19.8972 6.94184 19.6055 6.80141C19.2166 6.61776 18.8133 6.22887 18.6405 5.87238C18.4208 5.41867 18.3992 5.31425 18.3992 4.82813C18.3992 4.34201 18.4244 4.21958 18.6369 3.80548C18.8961 3.29416 19.3895 2.88726 19.998 2.69281C20.2321 2.61719 20.9234 2.61719 21.1611 2.68921Z" fill="#F07E1D"/>
<path d="M8.02516 3.78367C7.51744 3.83049 7.09614 3.95292 6.58481 4.20137C6.26794 4.35621 6.25713 4.36341 5.86104 4.65509C5.46854 4.94675 5.13726 5.29244 4.8672 5.69934C4.67275 5.99461 4.40629 6.50593 4.40629 6.58875C4.40629 6.61036 4.39188 6.65717 4.37388 6.69318C4.31986 6.7904 4.23344 7.12168 4.17223 7.46016C4.12542 7.73383 4.11822 9.60988 4.11822 24.0746C4.11822 41.384 4.11101 40.5234 4.26585 41.1067C4.35947 41.4452 4.55752 41.9313 4.70876 42.187C4.79518 42.3382 4.96082 42.5831 4.99683 42.6227C5.01843 42.6479 5.11566 42.7595 5.21648 42.8747C5.56577 43.2888 6.0987 43.7029 6.58481 43.9298C6.77566 44.0198 6.88729 44.0666 7.20776 44.189C7.25097 44.207 7.44542 44.2539 7.63987 44.2935C7.98555 44.3655 8.08278 44.3655 20.7002 44.3583C31.0887 44.3475 33.4365 44.3367 33.5553 44.3007C33.6346 44.2755 33.7894 44.2287 33.8974 44.1998C35.0029 43.901 36.0219 43.0584 36.5765 41.9817C36.6665 41.8053 36.7421 41.6432 36.7421 41.6288C36.7421 41.6108 36.7601 41.5532 36.7853 41.4956C36.8609 41.3155 36.9185 41.0779 36.9942 40.6746C37.0662 40.2821 37.0662 40.1273 37.0662 24.0566C37.0662 8.19834 37.0626 7.82745 36.9978 7.43856C36.9005 6.88762 36.6809 6.28268 36.454 5.92619C36.4144 5.86498 36.3712 5.79296 36.3568 5.76415C36.3064 5.65253 35.9967 5.27083 35.7699 5.04038C35.5718 4.83873 35.1865 4.53265 34.9237 4.37062C34.7292 4.24819 34.2287 4.02493 33.9874 3.94931C33.4077 3.77287 33.4041 3.77287 31.438 3.75487C30.4118 3.74767 29.5332 3.75127 29.4864 3.76207L29.3999 3.78367L29.3891 6.24307C29.3783 8.83929 29.3819 8.77808 29.2163 9.20298C29.1695 9.32541 28.9318 9.81153 28.885 9.88715C28.4925 10.5029 27.7939 11.0502 27.1458 11.2519C27.027 11.2879 26.8901 11.3347 26.8433 11.3527C26.7965 11.3707 26.5624 11.3995 26.3212 11.4175C25.7486 11.4607 15.4358 11.4643 14.8668 11.4175C14.0458 11.3527 13.3797 11.0538 12.8071 10.4921C12.3354 10.0348 12.1157 9.6675 11.8745 8.93292C11.8169 8.75288 11.8097 8.52962 11.7953 6.28628C11.7881 4.63708 11.7701 3.82328 11.7449 3.79448C11.7161 3.75847 11.3488 3.74767 10.0092 3.75487C9.07662 3.75487 8.1836 3.76927 8.02516 3.78367ZM16.6853 15.9294C16.9193 16.0518 17.085 16.2283 17.2074 16.4875L17.2974 16.6784V19.6527C17.2974 22.9655 17.3082 22.7927 17.0525 23.1131C16.8941 23.3112 16.7105 23.4264 16.4404 23.4948C16.2531 23.5453 15.8427 23.5525 13.4409 23.5525C10.9527 23.5525 10.6358 23.5453 10.4413 23.4912C10.1641 23.4156 9.94082 23.2644 9.79679 23.0591C9.56993 22.7387 9.57714 22.8647 9.56633 19.7967C9.55553 17.9891 9.56633 16.9233 9.59154 16.7936C9.67796 16.3219 9.94803 16.0086 10.4197 15.8358C10.4485 15.825 11.8277 15.8178 13.4805 15.8214L16.4872 15.8286L16.6853 15.9294ZM32.205 15.9294C32.4319 16.0446 32.5723 16.1887 32.6839 16.4227C32.7992 16.6568 32.7956 17.2005 32.6803 17.4202C32.5615 17.647 32.3959 17.8199 32.2014 17.9207L32.0286 18.0071H26.7065C21.7517 18.0035 21.3772 17.9999 21.2584 17.9423C20.8443 17.7406 20.6102 17.377 20.6102 16.9341C20.6102 16.5884 20.7038 16.3579 20.9307 16.1347C21.2908 15.7854 20.7362 15.8142 26.7317 15.8214L32.007 15.8286L32.205 15.9294ZM27.4807 21.3379C27.8336 21.4207 28.0316 21.5756 28.2008 21.9033C28.2873 22.0689 28.2981 22.1337 28.2981 22.4182C28.2981 22.6846 28.2837 22.7711 28.2116 22.9151C28.1216 23.0987 27.9632 23.2824 27.8083 23.3796C27.5419 23.5489 27.4555 23.5525 24.4271 23.5525C21.8885 23.5525 21.5536 23.5453 21.3736 23.4948C21.0099 23.3868 20.7902 23.2032 20.6426 22.8755C20.5346 22.6414 20.5346 22.1481 20.6426 21.9357C20.7398 21.7448 20.9163 21.5468 21.0567 21.4711C21.3916 21.2875 21.3196 21.2911 24.3911 21.2875C26.8001 21.2839 27.2898 21.2947 27.4807 21.3379ZM16.6204 29.087C16.8617 29.1986 17.0958 29.4291 17.2038 29.6595L17.2974 29.8576V32.8571C17.2974 35.8314 17.2974 35.8602 17.2218 36.0295C17.1318 36.2311 16.9049 36.4904 16.7429 36.5732C16.4332 36.7316 16.4548 36.7316 13.4445 36.7316C10.4666 36.7316 10.4233 36.728 10.1641 36.5804C10.0272 36.5048 9.8436 36.3283 9.75718 36.1915C9.57354 35.9034 9.57354 35.9106 9.57354 32.8607C9.57354 29.8036 9.57354 29.8216 9.75718 29.5227C9.90842 29.2814 10.1749 29.0942 10.4702 29.0222C10.5314 29.0078 11.9033 29.0006 13.5165 29.0006L16.4512 29.0078L16.6204 29.087ZM32.0682 29.087C32.295 29.1914 32.4787 29.3787 32.5903 29.6235C32.7163 29.9008 32.7163 30.3113 32.5867 30.5922C32.4859 30.8118 32.2986 31.0099 32.079 31.1287L31.9349 31.2043H26.6237H21.3124L21.1647 31.1215C20.9415 30.9991 20.7614 30.8082 20.6606 30.5922C20.5922 30.4373 20.5742 30.3401 20.5742 30.0988C20.5742 29.836 20.5886 29.7712 20.6786 29.5947C20.7398 29.4831 20.8155 29.3607 20.8551 29.3246C20.9667 29.2166 21.1431 29.0978 21.1971 29.0978C21.2224 29.0978 21.2584 29.0834 21.28 29.0654C21.298 29.0474 21.352 29.0258 21.4024 29.015C21.4528 29.0078 23.833 29.0006 26.6957 29.0042L31.8989 29.0078L32.0682 29.087ZM27.5239 34.5387C27.8732 34.6863 28.0388 34.8376 28.1792 35.1401C28.2909 35.3813 28.2873 35.8134 28.1756 36.0655C28.0892 36.2635 27.8876 36.4904 27.7219 36.5768C27.4267 36.728 27.3798 36.7316 24.4631 36.7316C21.5068 36.7316 21.3736 36.7244 21.1215 36.5624C20.7938 36.3499 20.6102 36.0115 20.6102 35.6154C20.6102 35.0212 20.9739 34.5999 21.5824 34.4883C21.6329 34.4775 22.9616 34.4739 24.5352 34.4775C26.9873 34.4847 27.4158 34.4919 27.5239 34.5387Z" fill="#F07E1D"/>
</g>
<defs>
<filter id="filter0_d_124_21378" x="0.918164" y="0.484375" width="39.3482" height="50.277" filterUnits="userSpaceOnUse" color-interpolation-filters="sRGB">
<feFlood flood-opacity="0" result="BackgroundImageFix"/>
<feColorMatrix in="SourceAlpha" type="matrix" values="0 0 0 0 0 0 0 0 0 0 0 0 0 0 0 0 0 0 127 0" result="hardAlpha"/>
<feOffset dy="3.2"/>
<feGaussianBlur stdDeviation="1.6"/>
<feComposite in2="hardAlpha" operator="out"/>
<feColorMatrix type="matrix" values="0 0 0 0 0 0 0 0 0 0 0 0 0 0 0 0 0 0 0.12 0"/>
<feBlend mode="normal" in2="BackgroundImageFix" result="effect1_dropShadow_124_21378"/>
<feBlend mode="normal" in="SourceGraphic" in2="effect1_dropShadow_124_21378" result="shape"/>
</filter>
</defs>
</svg>
