<svg width="46" height="46" viewBox="0 0 46 46" fill="none" xmlns="http://www.w3.org/2000/svg">
<path d="M21.6178 0.21764C21.4376 0.307713 20.8071 0.645493 20.2441 1.00579C18.5778 2.06416 16.8213 2.55957 14.7721 2.55957C12.8581 2.58208 11.5295 2.91986 10.7864 3.59542C10.5387 3.8206 9.95319 4.65379 9.52533 5.44194C8.53452 7.2209 7.13837 8.59453 5.08918 9.83305C2.92741 11.1391 2.65719 11.6345 2.47704 14.9898C2.31941 17.647 2.31941 17.692 1.17096 19.9664C0.427852 21.4301 0 22.556 0 23.0514C0 23.5468 0.427852 24.6728 1.17096 26.1365C2.29689 28.4108 2.31941 28.4784 2.47704 31.0905C2.6797 34.6259 2.97244 35.1664 5.33689 36.495C7.13837 37.4858 8.53452 38.8819 9.52533 40.6834C9.9757 41.4491 10.5387 42.2822 10.7864 42.5074C11.5295 43.183 12.8581 43.5208 14.7721 43.5433C16.8439 43.5433 18.3976 43.9937 20.2441 45.1196C21.0098 45.5925 21.843 45.9077 22.541 45.9753C23.5319 46.0654 23.8921 45.9528 26.0089 44.8944C28.3283 43.7009 28.3959 43.7009 30.9179 43.5658C34.048 43.3857 34.656 43.0929 35.9396 41.0662C37.3132 38.9045 38.6418 37.5308 40.3081 36.5625C41.1188 36.0897 41.952 35.5042 42.1547 35.279C42.8978 34.4683 43.2356 33.2523 43.2356 31.4283C43.2356 29.2891 43.6859 27.6677 44.7668 25.8662C45.4874 24.6728 45.6 24.335 45.6 23.0514C45.6 21.7679 45.4874 21.4301 44.7668 20.2366C43.6859 18.4351 43.2356 16.8138 43.2356 14.6745C43.2356 11.8822 42.6951 10.9139 40.3982 9.63038C38.8444 8.75216 37.3132 7.17587 35.9396 5.0366C34.6785 3.03246 34.0705 2.73972 30.9855 2.55957C28.2607 2.37942 27.315 2.1092 25.4684 0.960751C24.275 0.240158 22.4735 -0.12014 21.6178 0.21764ZM26.9321 6.16253C31.8862 7.40105 36.0747 10.7788 38.304 15.2825C39.565 17.8496 40.083 20.124 40.083 23.0514C40.083 35.9545 26.707 44.3089 15.2 38.5892C6.62044 34.3557 3.15259 23.9296 7.40859 15.2825C9.61541 10.8239 13.8039 7.44609 18.6904 6.16253C21.0323 5.57705 24.5677 5.55453 26.9321 6.16253Z" fill="#F07E1D"/>
<path d="M19.5232 8.09918C14.434 9.20259 10.2681 12.9632 8.37655 18.1424C7.83611 19.6512 7.76855 20.079 7.76855 23.0515C7.76855 26.0239 7.83611 26.4518 8.37655 27.9605C10.2906 33.2299 14.4791 36.9454 19.7034 38.0263C27.3146 39.6026 34.6106 35.4367 37.3354 27.9605C37.8758 26.4518 37.9434 26.0239 37.9434 23.0515C37.9434 20.079 37.8758 19.6512 37.3354 18.1424C34.6106 10.6213 27.202 6.45533 19.5232 8.09918ZM28.1929 15.778C28.3955 16.0032 29.0711 17.1516 29.7016 18.3451C30.5798 19.989 30.805 20.642 30.6699 21.0023C30.5798 21.2725 28.5982 23.5469 26.2788 26.0915C23.0586 29.6044 21.9102 30.7078 21.5049 30.7078C21.122 30.7078 20.2213 29.8971 18.082 27.6453C16.5057 25.9789 15.1771 24.4251 15.1321 24.2225C15.0646 23.727 15.1997 23.5694 16.5733 22.421C18.2847 21.0248 18.6 21.1149 20.0186 23.2992C20.8293 24.5602 21.3022 25.0782 21.5724 25.0331C21.8877 24.9656 23.8017 21.8355 27.0669 16.0707C27.5173 15.2826 27.72 15.2376 28.1929 15.778Z" fill="#F07E1D"/>
</svg>
