<svg width="32" height="40" viewBox="0 0 32 40" fill="none" xmlns="http://www.w3.org/2000/svg">
<path d="M3.96344 0.042263C2.93032 0.216015 1.97703 0.713795 1.28671 1.43698C0.699707 2.05216 0.309938 2.75187 0.108009 3.5455L0 3.96344V20.0004V36.0373L0.108009 36.4599C0.549435 38.2068 1.96763 39.5452 3.76621 39.9115C4.2452 40.0054 4.26868 40.0054 15.8819 39.996L27.5187 39.9819L27.8944 39.8739C28.7866 39.6157 29.3595 39.2963 29.9653 38.7187C30.6415 38.0801 31.0407 37.4226 31.3084 36.5022L31.4164 36.1312V20.0004V3.86952L31.3084 3.49854C30.9984 2.42315 30.3974 1.54499 29.5333 0.896938C29.0026 0.497776 28.1714 0.159664 27.4483 0.042263C27.0867 -0.0140877 4.30156 -0.0140877 3.96344 0.042263ZM8.77687 5.20789C9.73016 5.45208 10.4768 6.10952 10.8384 7.02995C10.9605 7.33988 10.984 7.47137 11.0028 7.93158C11.0263 8.56555 10.9605 8.89896 10.7069 9.41083C10.134 10.5801 8.79095 11.2564 7.53242 11.0122C6.60261 10.829 5.77611 10.2045 5.38634 9.38735C5.16093 8.90836 5.09518 8.6219 5.09518 8.08186C5.09518 7.5512 5.1938 7.16143 5.4333 6.69183C6.05317 5.49904 7.46198 4.86977 8.77687 5.20789ZM27.1712 6.87967C27.5375 6.98768 27.8803 7.33988 27.993 7.72026C28.1808 8.36831 27.8427 9.05393 27.2275 9.27464C27.082 9.3263 26.0441 9.33569 21.6956 9.34039C18.1454 9.34039 16.2811 9.32161 16.1684 9.29343C15.9007 9.21829 15.6049 8.96471 15.4499 8.68295C15.3278 8.45754 15.309 8.3777 15.309 8.07246C15.3137 7.66391 15.403 7.45259 15.6988 7.16143C16.0886 6.78575 15.727 6.80923 21.6534 6.80453C26.3541 6.80453 26.9411 6.81393 27.1712 6.87967ZM8.94592 17.1593C9.64093 17.3706 10.3735 17.9905 10.6928 18.6385C10.9323 19.1222 11.0122 19.4697 11.0122 20.0004C11.0122 20.531 10.9323 20.8785 10.6928 21.3622C10.4768 21.8036 9.95087 22.3531 9.50945 22.5973C8.6219 23.0856 7.48546 23.0856 6.59791 22.5973C6.20814 22.3812 5.63523 21.8083 5.4333 21.4233C4.98718 20.578 4.98718 19.4228 5.4333 18.5775C5.63523 18.1924 6.20814 17.6195 6.59791 17.4035C7.30232 17.0184 8.17108 16.9292 8.94592 17.1593ZM27.1336 18.7841C27.4295 18.8545 27.7347 19.1034 27.8944 19.3946C28.0118 19.6106 28.0306 19.6951 28.0306 20.0004C28.0306 20.2727 28.0071 20.3995 27.9272 20.5498C27.7958 20.8034 27.561 21.0382 27.3262 21.1556C27.1477 21.2401 26.974 21.2448 21.813 21.2589C18.0797 21.2683 16.4126 21.2589 16.2482 21.2213C15.9289 21.1509 15.619 20.9161 15.4499 20.6061C15.3278 20.3901 15.309 20.3056 15.309 20.0004C15.309 19.6951 15.3278 19.6106 15.4499 19.3946C15.6002 19.1175 15.8819 18.8874 16.1684 18.7935C16.4032 18.7183 26.8425 18.709 27.1336 18.7841ZM8.60781 28.9932C9.51414 29.1764 10.3125 29.7822 10.7069 30.5899C10.9605 31.1018 11.0263 31.4352 11.0028 32.0691C10.984 32.5294 10.9605 32.6608 10.8384 32.9708C10.0448 34.9807 7.48076 35.5348 5.96395 34.018C5.38634 33.4451 5.09518 32.7407 5.09518 31.9189C5.09518 31.3788 5.16093 31.0924 5.38634 30.6134C5.76202 29.8244 6.59791 29.1764 7.46668 28.9979C7.89871 28.9087 8.17108 28.9087 8.60781 28.9932ZM27.4107 30.8106C28.148 31.2473 28.2701 32.2006 27.6643 32.8017C27.2463 33.2244 27.6596 33.1962 21.6721 33.1962C15.7833 33.1962 16.1121 33.215 15.7223 32.8534C15.4077 32.5622 15.3137 32.3509 15.309 31.9283C15.309 31.623 15.3278 31.5432 15.4499 31.3225C15.6096 31.036 15.8444 30.8247 16.1121 30.7308C16.267 30.6744 17.1921 30.665 21.7426 30.6744L27.19 30.6838L27.4107 30.8106Z" fill="#F07E1D"/>
</svg>
