<svg width="45" height="35" viewBox="0 0 45 35" fill="none" xmlns="http://www.w3.org/2000/svg">
<path d="M13.9834 0.0724707C12.9994 0.291141 12.2455 1.10252 12.0786 2.11531C11.9175 3.14536 12.493 4.20994 13.4712 4.68181C15.2551 5.53347 17.2634 4.00853 16.9297 2.05201C16.757 1.04498 15.9687 0.23935 14.9616 0.0494528C14.5818 -0.0196013 14.3862 -0.0196013 13.9834 0.0724707Z" fill="#F07E1D"/>
<path d="M29.9862 0.0550237C29.2727 0.193131 28.5706 0.739806 28.2369 1.42459C28.0642 1.78712 28.0527 1.83891 28.0527 2.46615C28.0527 3.09914 28.0585 3.14518 28.2426 3.51346C28.8584 4.77369 30.3891 5.2916 31.5975 4.64709C32.6275 4.09467 33.1282 2.95528 32.8289 1.81014C32.7139 1.36129 32.5182 1.04479 32.1384 0.688016C31.5457 0.124077 30.7746 -0.100347 29.9862 0.0550237Z" fill="#F07E1D"/>
<path d="M10.9045 5.52751C10.4729 5.60807 9.82269 5.95334 9.47742 6.2871C9.08612 6.6669 8.83867 7.02943 8.64302 7.5128L8.48765 7.90411L8.47039 10.6087L8.45312 13.3133L8.58548 13.5665C8.75811 13.9003 8.95952 14.0441 9.3163 14.0787C9.67307 14.1132 9.8975 14.0269 10.1219 13.7737C10.3866 13.4687 10.4154 13.1925 10.4154 10.9252V8.8536H10.8758H11.3361V11.9898V15.126H14.5586H17.7811V11.9898V8.8536H18.2127H18.6443V10.9655C18.6443 12.1336 18.6731 13.1867 18.7018 13.3076C18.8054 13.7679 19.1852 14.0902 19.6226 14.0902C20.0599 14.0902 20.4397 13.7679 20.5433 13.3076C20.6181 12.9853 20.6123 8.78454 20.5375 8.23787C20.3534 6.92009 19.4096 5.83825 18.1782 5.54477C17.8732 5.47572 17.2632 5.45846 14.5011 5.46421C12.6827 5.46997 11.0657 5.49298 10.9045 5.52751Z" fill="#F07E1D"/>
<path d="M26.7355 5.55053C25.9184 5.74618 25.0955 6.41946 24.7272 7.19056C24.6121 7.42649 24.4913 7.73148 24.4568 7.87534C24.4165 8.05373 24.3992 8.99746 24.4107 10.8216C24.428 13.4284 24.4337 13.509 24.5488 13.6643C24.779 13.9751 24.9516 14.0614 25.3487 14.0614C25.7745 14.0614 25.9644 13.9521 26.1658 13.5953C26.2924 13.3709 26.2982 13.3421 26.2982 11.1094V8.8536H26.7873H27.2765V11.9898V15.126H30.4702H33.6639V11.9898V8.8536H34.1243H34.5846V11.0576V13.2615L34.7458 13.5723C35.0795 14.234 35.8794 14.2801 36.334 13.6701C36.4491 13.509 36.4548 13.4399 36.4721 10.8792C36.4836 9.1183 36.4664 8.15155 36.4203 7.95015C36.1844 6.78774 35.1141 5.72316 33.9862 5.52176C33.4337 5.41818 27.1671 5.44695 26.7355 5.55053Z" fill="#F07E1D"/>
<path d="M0 17.4278V18.291H1.49041H2.98082L3.0844 17.986C3.21675 17.5717 3.37212 17.2782 3.63107 16.9272C3.75767 16.7603 3.8555 16.6107 3.8555 16.5934C3.8555 16.5762 2.98657 16.5647 1.92775 16.5647H0V17.4278Z" fill="#F07E1D"/>
<path d="M9.20703 16.5992C9.20703 16.6165 9.2991 16.7373 9.41419 16.8697C9.65013 17.1516 9.99539 17.8076 10.0472 18.0954L10.0817 18.291H14.5011H18.9148L18.9839 18.0493C19.099 17.6753 19.3176 17.2552 19.5651 16.9215C19.6917 16.7546 19.7953 16.605 19.7953 16.5934C19.7953 16.5762 17.4129 16.5647 14.5011 16.5647C11.5894 16.5647 9.20703 16.5819 9.20703 16.5992Z" fill="#F07E1D"/>
<path d="M25.4573 17.0193C25.7451 17.4336 26.0098 18.009 26.0098 18.2047C26.0098 18.2795 26.591 18.291 30.435 18.291H34.8601L34.958 17.986C35.0731 17.635 35.3378 17.1401 35.5679 16.8466C35.66 16.7316 35.7348 16.6165 35.7348 16.5992C35.7348 16.5819 33.3525 16.5647 30.4407 16.5647H25.1523L25.4573 17.0193Z" fill="#F07E1D"/>
<path d="M41.1211 16.6337C41.1499 16.674 41.2535 16.8236 41.3628 16.9617C41.593 17.2667 41.8289 17.7156 41.921 18.0321L41.9901 18.2622L43.4977 18.2795L44.9997 18.291V17.4278V16.5647H43.0374C41.4894 16.5647 41.0866 16.5819 41.1211 16.6337Z" fill="#F07E1D"/>
<path d="M5.78317 16.789C5.31131 16.9559 5.1099 17.0825 4.80491 17.3933C3.68855 18.5441 3.93599 20.4374 5.2998 21.2372C6.28957 21.8184 7.57857 21.6228 8.34967 20.7769C8.69494 20.4028 8.88484 20.0115 8.98266 19.4821C9.17832 18.4176 8.47627 17.2206 7.42895 16.8351C6.91681 16.6452 6.23778 16.6222 5.78317 16.789Z" fill="#F07E1D"/>
<path d="M21.7005 16.7948C20.8431 17.1113 20.2331 17.8421 20.0777 18.7456C19.9454 19.4936 20.2331 20.3338 20.8028 20.8747C21.2516 21.3005 21.7465 21.5192 22.345 21.5537C23.1621 21.6055 23.7548 21.3638 24.3073 20.7539C25.4236 19.5224 25.0496 17.6234 23.5477 16.8984C23.2082 16.7372 23.0988 16.7142 22.5867 16.697C22.1206 16.6797 21.9537 16.697 21.7005 16.7948Z" fill="#F07E1D"/>
<path d="M37.6634 16.7892C37.1915 16.956 36.9901 17.0826 36.6852 17.3934C35.6148 18.4982 35.7875 20.3109 37.0419 21.1453C37.6519 21.5481 38.3827 21.669 39.0963 21.4848C39.5451 21.3697 39.8616 21.1741 40.2184 20.7943C40.7536 20.2303 40.9953 19.442 40.8629 18.7399C40.6155 17.4912 39.6545 16.6741 38.423 16.6798C38.118 16.6856 37.8476 16.7201 37.6634 16.7892Z" fill="#F07E1D"/>
<path d="M3.06674 22.1522C1.88707 22.3479 0.90881 23.2513 0.580805 24.4482C0.465715 24.851 0.459961 25.0237 0.459961 27.4118C0.459961 29.7539 0.47147 29.961 0.569296 30.1797C0.9606 31.0371 2.15178 30.899 2.35318 29.9725C2.39346 29.7884 2.41648 28.8734 2.41648 27.5844V25.484H2.87684H3.3372V28.649V31.814H6.5597H9.78221V28.649V25.484H10.2426H10.7029V27.711C10.7029 29.7539 10.7144 29.961 10.8123 30.1739C11.0885 30.7724 11.7675 30.945 12.2394 30.5307C12.6077 30.2085 12.6019 30.2372 12.6019 27.4348C12.6019 24.6036 12.5961 24.523 12.2106 23.7865C11.7675 22.9463 10.8353 22.273 9.92607 22.1464C9.43119 22.0774 3.48681 22.0831 3.06674 22.1522Z" fill="#F07E1D"/>
<path d="M19.0014 22.1522C18.0749 22.3076 17.2405 22.9406 16.7802 23.8152C16.4234 24.4943 16.4004 24.736 16.4004 27.4291C16.4004 30.0876 16.4177 30.2315 16.7514 30.5192C17.2866 30.9623 18.1095 30.7149 18.2936 30.0588C18.3339 29.9092 18.3569 29.0576 18.3569 27.6535V25.484H18.8173H19.2776V28.649V31.814H22.5001H25.7226L25.7341 28.6605L25.7514 25.5128L26.1945 25.4956L26.6376 25.4783L26.6549 27.7743L26.6721 30.0646L26.8333 30.312C27.2418 30.9278 28.059 30.8932 28.4272 30.2487L28.5711 30.0013V27.4406C28.5711 24.9201 28.5711 24.8741 28.4388 24.4482C28.105 23.3837 27.4145 22.6413 26.4074 22.273L25.9816 22.1177L22.644 22.1062C20.8083 22.1062 19.1683 22.1234 19.0014 22.1522Z" fill="#F07E1D"/>
<path d="M35.033 22.1464C34.0663 22.3133 33.2146 22.9348 32.7485 23.8152C32.4205 24.431 32.3975 24.6266 32.3975 27.3888C32.3975 29.1151 32.4205 29.961 32.4608 30.0934C32.7312 30.8875 33.8016 30.9796 34.1986 30.2372C34.3195 30.0071 34.3252 29.9495 34.3425 27.7398L34.3597 25.484H34.8201H35.2747V28.649V31.814L38.4857 31.8025L41.6909 31.7852L41.7082 28.6317L41.7197 25.484H42.1513H42.5771L42.5944 27.7398L42.6117 30.0013L42.7728 30.2718C43.1411 30.9048 43.9467 30.922 44.3495 30.312L44.5106 30.0646L44.5279 27.6132C44.5394 25.5819 44.5279 25.087 44.4588 24.7302C44.2172 23.5736 43.3828 22.6126 42.3009 22.25C41.9269 22.1234 41.8578 22.1177 38.6123 22.1119C36.7939 22.1062 35.1826 22.1234 35.033 22.1464Z" fill="#F07E1D"/>
<path d="M0 34.1158V34.979H22.5H45V34.1158V33.2527H22.5H0V34.1158Z" fill="#F07E1D"/>
</svg>
