<svg width="423" height="123" viewBox="0 0 423 123" fill="none" xmlns="http://www.w3.org/2000/svg">
<rect x="0.00585938" y="42.5" width="423" height="59" rx="11" fill="#254194"/>
<path d="M63.1217 110.995C57.1913 110.973 52.0636 109.775 47.7386 107.402C43.4899 104.953 40.1955 101.481 37.8552 96.9869C35.5153 92.4162 34.3571 86.9756 34.3807 80.665C34.4076 73.442 35.4213 66.6789 37.4216 60.3757C39.498 54.0728 42.3699 48.5331 46.0373 43.7568C49.7049 38.9044 54.0908 35.1572 59.1948 32.5151C64.3751 29.7973 70.0446 28.4498 76.2031 28.4728C82.1335 28.495 87.2231 29.7305 91.4718 32.1794C95.7967 34.5525 99.1293 37.9864 101.47 42.481C103.81 46.9757 104.968 52.4163 104.944 58.8029C104.917 66.0259 103.866 72.7888 101.789 79.0918C99.7888 85.395 96.9548 90.9728 93.2871 95.8251C89.6197 100.601 85.2339 104.349 80.1296 107.067C75.0256 109.709 69.3563 111.018 63.1217 110.995ZM64.8907 95.377C68.3882 95.3901 71.4717 94.2611 74.1413 91.9901C76.8112 89.6431 79.0274 86.61 80.7901 82.891C82.6287 79.1723 84.012 75.2238 84.94 71.0455C85.868 66.8672 86.3389 62.9153 86.3528 59.1897C86.3724 53.9436 85.3222 50.138 83.2021 47.7731C81.0823 45.3322 78.1596 44.1048 74.4341 44.0909C70.9367 44.0778 67.853 45.2448 65.1831 47.5918C62.5135 49.8628 60.2594 52.8577 58.4207 56.5764C56.6581 60.2954 55.3128 64.2441 54.3848 68.4224C53.4568 72.6007 52.9859 76.5526 52.972 80.2782C52.9527 85.4483 54.0029 89.2538 56.1227 91.6948C58.3186 94.136 61.2412 95.3634 64.8907 95.377Z" fill="#F07E1D"/>
<path d="M132.425 89.5V60.9512H121.199V55.6285H149.942V60.9512H138.716V89.5H132.425ZM164.403 89.8387C162.21 89.8387 160.274 89.4355 158.597 88.629C156.919 87.7903 155.613 86.5322 154.677 84.8548C153.742 83.1451 153.274 80.9999 153.274 78.4192V63.6609H159.323V77.5966C159.323 79.9192 159.839 81.6612 160.871 82.8225C161.936 83.9515 163.436 84.5161 165.371 84.5161C166.79 84.5161 168.016 84.2257 169.049 83.6451C170.113 83.0644 170.936 82.1934 171.516 81.0321C172.129 79.8708 172.436 78.4353 172.436 76.7256V63.6609H178.484V89.5H172.726V82.5321L173.742 84.6612C172.871 86.3387 171.597 87.629 169.92 88.5322C168.242 89.4032 166.403 89.8387 164.403 89.8387ZM186.404 89.5V63.6609H192.452V89.5H186.404ZM189.452 59.4028C188.323 59.4028 187.387 59.0479 186.645 58.3382C185.936 57.6285 185.581 56.7737 185.581 55.7737C185.581 54.7414 185.936 53.8865 186.645 53.2091C187.387 52.4994 188.323 52.1446 189.452 52.1446C190.581 52.1446 191.5 52.4833 192.21 53.1607C192.952 53.8059 193.323 54.6285 193.323 55.6285C193.323 56.693 192.968 57.5963 192.258 58.3382C191.549 59.0479 190.613 59.4028 189.452 59.4028ZM210.117 89.8387C207.278 89.8387 205.084 89.1129 203.536 87.6613C201.987 86.1774 201.213 83.9999 201.213 81.1289V57.9511H207.262V80.9837C207.262 82.2096 207.568 83.1612 208.181 83.8386C208.826 84.5161 209.713 84.8548 210.842 84.8548C212.197 84.8548 213.326 84.4999 214.23 83.7902L215.923 88.0968C215.213 88.6774 214.342 89.1129 213.31 89.4032C212.278 89.6936 211.213 89.8387 210.117 89.8387ZM196.955 68.6932V63.8544H214.181V68.6932H196.955ZM220.899 89.5V63.6609H226.947V89.5H220.899ZM223.947 59.4028C222.818 59.4028 221.883 59.0479 221.141 58.3382C220.431 57.6285 220.076 56.7737 220.076 55.7737C220.076 54.7414 220.431 53.8865 221.141 53.2091C221.883 52.4994 222.818 52.1446 223.947 52.1446C225.076 52.1446 225.996 52.4833 226.705 53.1607C227.447 53.8059 227.818 54.6285 227.818 55.6285C227.818 56.693 227.463 57.5963 226.754 58.3382C226.044 59.0479 225.109 59.4028 223.947 59.4028ZM246.499 89.8387C243.854 89.8387 241.499 89.2742 239.434 88.1451C237.37 86.9838 235.741 85.4032 234.547 83.4031C233.354 81.4031 232.757 79.1289 232.757 76.5804C232.757 73.9998 233.354 71.7255 234.547 69.7578C235.741 67.7577 237.37 66.1932 239.434 65.0641C241.499 63.9351 243.854 63.3706 246.499 63.3706C249.176 63.3706 251.547 63.9351 253.612 65.0641C255.709 66.1932 257.338 67.7416 258.499 69.7094C259.693 71.6771 260.29 73.9675 260.29 76.5804C260.29 79.1289 259.693 81.4031 258.499 83.4031C257.338 85.4032 255.709 86.9838 253.612 88.1451C251.547 89.2742 249.176 89.8387 246.499 89.8387ZM246.499 84.6612C247.983 84.6612 249.305 84.3386 250.467 83.6935C251.628 83.0483 252.531 82.1128 253.177 80.887C253.854 79.6611 254.193 78.2256 254.193 76.5804C254.193 74.903 253.854 73.4675 253.177 72.2739C252.531 71.0481 251.628 70.1126 250.467 69.4674C249.305 68.8223 247.999 68.4997 246.547 68.4997C245.063 68.4997 243.741 68.8223 242.58 69.4674C241.451 70.1126 240.547 71.0481 239.87 72.2739C239.192 73.4675 238.854 74.903 238.854 76.5804C238.854 78.2256 239.192 79.6611 239.87 80.887C240.547 82.1128 241.451 83.0483 242.58 83.6935C243.741 84.3386 245.047 84.6612 246.499 84.6612ZM280.735 63.3706C282.799 63.3706 284.638 63.7738 286.251 64.5803C287.896 65.3867 289.187 66.6287 290.122 68.3061C291.058 69.9513 291.525 72.0804 291.525 74.6933V89.5H285.477V75.4675C285.477 73.1772 284.929 71.4675 283.832 70.3384C282.767 69.2094 281.267 68.6448 279.332 68.6448C277.912 68.6448 276.654 68.9352 275.557 69.5158C274.461 70.0965 273.606 70.9675 272.993 72.1288C272.412 73.2578 272.122 74.6933 272.122 76.4353V89.5H266.073V63.6609H271.832V70.6287L270.815 68.4997C271.719 66.8545 273.025 65.5964 274.735 64.7254C276.477 63.8222 278.477 63.3706 280.735 63.3706ZM318.91 71.2094H335.797V76.5321H318.91V71.2094ZM319.442 89.5H313.152V55.6285H337.878V60.9028H319.442V89.5ZM354.817 89.8387C351.946 89.8387 349.43 89.2742 347.269 88.1451C345.14 86.9838 343.478 85.4032 342.285 83.4031C341.123 81.4031 340.543 79.1289 340.543 76.5804C340.543 73.9998 341.107 71.7255 342.236 69.7578C343.398 67.7577 344.978 66.1932 346.978 65.0641C349.011 63.9351 351.317 63.3706 353.898 63.3706C356.414 63.3706 358.656 63.919 360.624 65.0157C362.591 66.1125 364.14 67.6609 365.269 69.661C366.398 71.661 366.962 74.0159 366.962 76.7256C366.962 76.9837 366.946 77.274 366.914 77.5966C366.914 77.9192 366.898 78.2256 366.866 78.516H345.333V74.4998H363.672L361.301 75.7579C361.333 74.274 361.027 72.9675 360.382 71.8384C359.737 70.7094 358.849 69.8223 357.72 69.1771C356.624 68.5319 355.349 68.2093 353.898 68.2093C352.414 68.2093 351.107 68.5319 349.978 69.1771C348.881 69.8223 348.011 70.7255 347.365 71.8868C346.752 73.0159 346.446 74.3546 346.446 75.903V76.8708C346.446 78.4192 346.801 79.7902 347.511 80.9837C348.22 82.1773 349.22 83.0967 350.511 83.7418C351.801 84.387 353.285 84.7096 354.962 84.7096C356.414 84.7096 357.72 84.4838 358.882 84.0322C360.043 83.5806 361.075 82.8709 361.978 81.9031L365.22 85.629C364.059 86.9838 362.591 88.0322 360.817 88.7742C359.075 89.4839 357.075 89.8387 354.817 89.8387ZM384.918 89.8387C382.047 89.8387 379.531 89.2742 377.369 88.1451C375.24 86.9838 373.579 85.4032 372.385 83.4031C371.224 81.4031 370.643 79.1289 370.643 76.5804C370.643 73.9998 371.208 71.7255 372.337 69.7578C373.498 67.7577 375.079 66.1932 377.079 65.0641C379.111 63.9351 381.418 63.3706 383.998 63.3706C386.515 63.3706 388.756 63.919 390.724 65.0157C392.692 66.1125 394.24 67.6609 395.369 69.661C396.499 71.661 397.063 74.0159 397.063 76.7256C397.063 76.9837 397.047 77.274 397.015 77.5966C397.015 77.9192 396.999 78.2256 396.966 78.516H375.434V74.4998H393.773L391.402 75.7579C391.434 74.274 391.127 72.9675 390.482 71.8384C389.837 70.7094 388.95 69.8223 387.821 69.1771C386.724 68.5319 385.45 68.2093 383.998 68.2093C382.514 68.2093 381.208 68.5319 380.079 69.1771C378.982 69.8223 378.111 70.7255 377.466 71.8868C376.853 73.0159 376.547 74.3546 376.547 75.903V76.8708C376.547 78.4192 376.901 79.7902 377.611 80.9837C378.321 82.1773 379.321 83.0967 380.611 83.7418C381.902 84.387 383.385 84.7096 385.063 84.7096C386.515 84.7096 387.821 84.4838 388.982 84.0322C390.144 83.5806 391.176 82.8709 392.079 81.9031L395.321 85.629C394.16 86.9838 392.692 88.0322 390.918 88.7742C389.176 89.4839 387.176 89.8387 384.918 89.8387Z" fill="white"/>
<path d="M116.699 26.4499L111.442 29.3532V28.4901L116.699 31.3933L115.169 34.0612L110.108 31.1187L110.618 30.8441L110.657 36.4544H107.676L107.715 30.8441L108.225 31.1187L103.203 34.0612L101.634 31.3933L106.93 28.4901V29.3532L101.634 26.4499L103.203 23.7428L108.225 26.7246L107.715 27.0384L107.676 21.3888H110.657L110.618 27.0384L110.108 26.7246L115.169 23.7428L116.699 26.4499Z" fill="white"/>
<path d="M145.574 110.902L143.038 112.302V111.886L145.574 113.286L144.836 114.573L142.395 113.154L142.641 113.021L142.66 115.727H141.222L141.241 113.021L141.487 113.154L139.065 114.573L138.309 113.286L140.863 111.886V112.302L138.309 110.902L139.065 109.597L141.487 111.035L141.241 111.186L141.222 108.462H142.66L142.641 111.186L142.395 111.035L144.836 109.597L145.574 110.902ZM155.135 115.348H161.738V117.43H155.135V115.348ZM155.343 122.5H152.884V109.256H162.552V111.319H155.343V122.5ZM168.967 122.632C167.933 122.632 167.012 122.412 166.205 121.97C165.397 121.516 164.76 120.898 164.294 120.116C163.827 119.334 163.594 118.445 163.594 117.448C163.594 116.439 163.827 115.55 164.294 114.781C164.76 113.999 165.397 113.387 166.205 112.946C167.012 112.504 167.933 112.283 168.967 112.283C170.014 112.283 170.941 112.504 171.748 112.946C172.568 113.387 173.205 113.993 173.659 114.762C174.126 115.531 174.359 116.427 174.359 117.448C174.359 118.445 174.126 119.334 173.659 120.116C173.205 120.898 172.568 121.516 171.748 121.97C170.941 122.412 170.014 122.632 168.967 122.632ZM168.967 120.608C169.547 120.608 170.064 120.482 170.518 120.23C170.972 119.977 171.325 119.612 171.578 119.132C171.843 118.653 171.975 118.092 171.975 117.448C171.975 116.793 171.843 116.231 171.578 115.765C171.325 115.285 170.972 114.92 170.518 114.667C170.064 114.415 169.553 114.289 168.986 114.289C168.406 114.289 167.888 114.415 167.434 114.667C166.993 114.92 166.64 115.285 166.375 115.765C166.11 116.231 165.978 116.793 165.978 117.448C165.978 118.092 166.11 118.653 166.375 119.132C166.64 119.612 166.993 119.977 167.434 120.23C167.888 120.482 168.399 120.608 168.967 120.608ZM176.62 122.5V112.397H178.872V115.178L178.607 114.365C178.91 113.683 179.383 113.166 180.026 112.813C180.682 112.46 181.495 112.283 182.467 112.283V114.535C182.366 114.51 182.271 114.497 182.183 114.497C182.094 114.484 182.006 114.478 181.918 114.478C181.022 114.478 180.31 114.743 179.78 115.273C179.25 115.79 178.985 116.566 178.985 117.6V122.5H176.62ZM193.597 122.632C192.487 122.632 191.629 122.349 191.024 121.781C190.418 121.201 190.116 120.349 190.116 119.227V110.164H192.48V119.17C192.48 119.649 192.6 120.022 192.84 120.286C193.092 120.551 193.439 120.684 193.881 120.684C194.41 120.684 194.852 120.545 195.205 120.267L195.867 121.951C195.59 122.178 195.249 122.349 194.845 122.462C194.442 122.576 194.026 122.632 193.597 122.632ZM188.451 114.365V112.473H195.186V114.365H188.451ZM203.545 112.283C204.352 112.283 205.071 112.441 205.702 112.756C206.345 113.072 206.85 113.557 207.216 114.213C207.581 114.856 207.764 115.689 207.764 116.711V122.5H205.399V117.013C205.399 116.118 205.185 115.449 204.756 115.008C204.34 114.566 203.753 114.346 202.997 114.346C202.442 114.346 201.95 114.459 201.521 114.686C201.092 114.913 200.758 115.254 200.518 115.708C200.291 116.149 200.177 116.711 200.177 117.392V122.5H197.813V108.462H200.177V115.121L199.667 114.289C200.02 113.646 200.531 113.154 201.199 112.813C201.88 112.46 202.662 112.283 203.545 112.283ZM215.323 122.632C214.289 122.632 213.368 122.412 212.561 121.97C211.754 121.516 211.117 120.898 210.65 120.116C210.184 119.334 209.95 118.445 209.95 117.448C209.95 116.439 210.184 115.55 210.65 114.781C211.117 113.999 211.754 113.387 212.561 112.946C213.368 112.504 214.289 112.283 215.323 112.283C216.37 112.283 217.297 112.504 218.105 112.946C218.925 113.387 219.561 113.993 220.016 114.762C220.482 115.531 220.716 116.427 220.716 117.448C220.716 118.445 220.482 119.334 220.016 120.116C219.561 120.898 218.925 121.516 218.105 121.97C217.297 122.412 216.37 122.632 215.323 122.632ZM215.323 120.608C215.904 120.608 216.421 120.482 216.875 120.23C217.329 119.977 217.682 119.612 217.934 119.132C218.199 118.653 218.332 118.092 218.332 117.448C218.332 116.793 218.199 116.231 217.934 115.765C217.682 115.285 217.329 114.92 216.875 114.667C216.421 114.415 215.91 114.289 215.342 114.289C214.762 114.289 214.245 114.415 213.791 114.667C213.35 114.92 212.996 115.285 212.732 115.765C212.467 116.231 212.334 116.793 212.334 117.448C212.334 118.092 212.467 118.653 212.732 119.132C212.996 119.612 213.35 119.977 213.791 120.23C214.245 120.482 214.756 120.608 215.323 120.608ZM226.099 122.632C225.254 122.632 224.44 122.525 223.658 122.311C222.889 122.084 222.277 121.813 221.823 121.497L222.731 119.7C223.185 119.99 223.728 120.23 224.358 120.419C224.989 120.608 225.619 120.703 226.25 120.703C226.994 120.703 227.53 120.602 227.858 120.4C228.199 120.198 228.369 119.927 228.369 119.586C228.369 119.309 228.256 119.101 228.029 118.962C227.802 118.811 227.505 118.697 227.139 118.621C226.774 118.546 226.364 118.476 225.91 118.413C225.468 118.35 225.02 118.268 224.566 118.167C224.125 118.054 223.721 117.896 223.355 117.694C222.99 117.48 222.693 117.196 222.466 116.843C222.239 116.49 222.126 116.023 222.126 115.443C222.126 114.8 222.309 114.245 222.674 113.778C223.04 113.299 223.551 112.933 224.207 112.681C224.875 112.416 225.664 112.283 226.572 112.283C227.253 112.283 227.94 112.359 228.634 112.51C229.328 112.662 229.902 112.876 230.356 113.154L229.448 114.951C228.968 114.661 228.483 114.465 227.991 114.365C227.511 114.251 227.032 114.194 226.553 114.194C225.834 114.194 225.298 114.302 224.945 114.516C224.604 114.73 224.434 115.002 224.434 115.329C224.434 115.632 224.547 115.859 224.774 116.011C225.001 116.162 225.298 116.282 225.664 116.37C226.029 116.458 226.433 116.534 226.874 116.597C227.329 116.648 227.776 116.73 228.218 116.843C228.659 116.957 229.063 117.114 229.429 117.316C229.807 117.505 230.11 117.776 230.337 118.13C230.564 118.483 230.677 118.943 230.677 119.511C230.677 120.141 230.488 120.69 230.11 121.157C229.744 121.623 229.22 121.989 228.539 122.254C227.858 122.506 227.045 122.632 226.099 122.632ZM237.463 122.632C236.34 122.632 235.356 122.412 234.511 121.97C233.679 121.516 233.029 120.898 232.563 120.116C232.109 119.334 231.882 118.445 231.882 117.448C231.882 116.439 232.102 115.55 232.544 114.781C232.998 113.999 233.616 113.387 234.398 112.946C235.192 112.504 236.094 112.283 237.103 112.283C238.087 112.283 238.964 112.498 239.733 112.927C240.503 113.356 241.108 113.961 241.549 114.743C241.991 115.525 242.212 116.446 242.212 117.505C242.212 117.606 242.205 117.72 242.193 117.846C242.193 117.972 242.186 118.092 242.174 118.205H233.755V116.635H240.925L239.998 117.127C240.011 116.547 239.891 116.036 239.639 115.594C239.386 115.153 239.039 114.806 238.598 114.554C238.169 114.302 237.671 114.175 237.103 114.175C236.523 114.175 236.012 114.302 235.571 114.554C235.142 114.806 234.801 115.159 234.549 115.613C234.31 116.055 234.19 116.578 234.19 117.184V117.562C234.19 118.167 234.328 118.703 234.606 119.17C234.883 119.637 235.274 119.996 235.779 120.249C236.283 120.501 236.864 120.627 237.52 120.627C238.087 120.627 238.598 120.539 239.052 120.362C239.506 120.186 239.91 119.908 240.263 119.53L241.53 120.986C241.076 121.516 240.503 121.926 239.809 122.216C239.128 122.494 238.346 122.632 237.463 122.632ZM251.945 122.5L248.236 112.397H250.469L253.647 121.308H252.588L255.918 112.397H257.904L261.139 121.308H260.099L263.372 112.397H265.472L261.745 122.5H259.475L256.523 114.611H257.223L254.215 122.5H251.945ZM272.831 112.283C273.638 112.283 274.357 112.441 274.988 112.756C275.631 113.072 276.135 113.557 276.501 114.213C276.867 114.856 277.05 115.689 277.05 116.711V122.5H274.685V117.013C274.685 116.118 274.47 115.449 274.042 115.008C273.625 114.566 273.039 114.346 272.282 114.346C271.727 114.346 271.235 114.459 270.806 114.686C270.377 114.913 270.043 115.254 269.804 115.708C269.577 116.149 269.463 116.711 269.463 117.392V122.5H267.098V108.462H269.463V115.121L268.952 114.289C269.305 113.646 269.816 113.154 270.485 112.813C271.166 112.46 271.948 112.283 272.831 112.283ZM284.609 122.632C283.575 122.632 282.654 122.412 281.847 121.97C281.04 121.516 280.403 120.898 279.936 120.116C279.469 119.334 279.236 118.445 279.236 117.448C279.236 116.439 279.469 115.55 279.936 114.781C280.403 113.999 281.04 113.387 281.847 112.946C282.654 112.504 283.575 112.283 284.609 112.283C285.656 112.283 286.583 112.504 287.39 112.946C288.21 113.387 288.847 113.993 289.301 114.762C289.768 115.531 290.001 116.427 290.001 117.448C290.001 118.445 289.768 119.334 289.301 120.116C288.847 120.898 288.21 121.516 287.39 121.97C286.583 122.412 285.656 122.632 284.609 122.632ZM284.609 120.608C285.189 120.608 285.706 120.482 286.16 120.23C286.614 119.977 286.968 119.612 287.22 119.132C287.485 118.653 287.617 118.092 287.617 117.448C287.617 116.793 287.485 116.231 287.22 115.765C286.968 115.285 286.614 114.92 286.16 114.667C285.706 114.415 285.196 114.289 284.628 114.289C284.048 114.289 283.531 114.415 283.077 114.667C282.635 114.92 282.282 115.285 282.017 115.765C281.752 116.231 281.62 116.793 281.62 117.448C281.62 118.092 281.752 118.653 282.017 119.132C282.282 119.612 282.635 119.977 283.077 120.23C283.531 120.482 284.041 120.608 284.609 120.608ZM303.224 112.283C304.031 112.283 304.75 112.441 305.381 112.756C306.024 113.072 306.529 113.557 306.894 114.213C307.26 114.856 307.443 115.689 307.443 116.711V122.5H305.078V117.013C305.078 116.118 304.864 115.449 304.435 115.008C304.019 114.566 303.432 114.346 302.675 114.346C302.12 114.346 301.628 114.459 301.2 114.686C300.771 114.913 300.436 115.254 300.197 115.708C299.97 116.149 299.856 116.711 299.856 117.392V122.5H297.491V108.462H299.856V115.121L299.345 114.289C299.699 113.646 300.209 113.154 300.878 112.813C301.559 112.46 302.341 112.283 303.224 112.283ZM316.668 122.5V120.457L316.535 120.022V116.446C316.535 115.752 316.327 115.216 315.911 114.838C315.495 114.447 314.864 114.251 314.019 114.251C313.451 114.251 312.89 114.339 312.335 114.516C311.793 114.693 311.332 114.938 310.954 115.254L310.027 113.532C310.569 113.116 311.212 112.807 311.957 112.605C312.713 112.391 313.495 112.283 314.303 112.283C315.766 112.283 316.895 112.637 317.689 113.343C318.497 114.037 318.9 115.115 318.9 116.578V122.5H316.668ZM313.489 122.632C312.732 122.632 312.07 122.506 311.503 122.254C310.935 121.989 310.494 121.63 310.178 121.176C309.876 120.709 309.724 120.186 309.724 119.605C309.724 119.038 309.857 118.527 310.121 118.073C310.399 117.619 310.847 117.259 311.465 116.994C312.083 116.73 312.903 116.597 313.924 116.597H316.857V118.167H314.095C313.287 118.167 312.745 118.3 312.467 118.565C312.19 118.817 312.051 119.132 312.051 119.511C312.051 119.94 312.222 120.28 312.562 120.532C312.903 120.785 313.376 120.911 313.981 120.911C314.561 120.911 315.078 120.778 315.532 120.513C315.999 120.249 316.333 119.858 316.535 119.34L316.933 120.759C316.705 121.352 316.296 121.813 315.703 122.141C315.123 122.468 314.385 122.632 313.489 122.632ZM324.437 122.5L320.104 112.397H322.564L326.291 121.308H325.08L328.94 112.397H331.21L326.878 122.5H324.437ZM337.16 122.632C336.037 122.632 335.054 122.412 334.209 121.97C333.376 121.516 332.727 120.898 332.26 120.116C331.806 119.334 331.579 118.445 331.579 117.448C331.579 116.439 331.8 115.55 332.241 114.781C332.695 113.999 333.313 113.387 334.095 112.946C334.89 112.504 335.792 112.283 336.801 112.283C337.784 112.283 338.661 112.498 339.43 112.927C340.2 113.356 340.805 113.961 341.247 114.743C341.688 115.525 341.909 116.446 341.909 117.505C341.909 117.606 341.903 117.72 341.89 117.846C341.89 117.972 341.884 118.092 341.871 118.205H333.452V116.635H340.622L339.695 117.127C339.708 116.547 339.588 116.036 339.336 115.594C339.084 115.153 338.737 114.806 338.295 114.554C337.866 114.302 337.368 114.175 336.801 114.175C336.22 114.175 335.71 114.302 335.268 114.554C334.839 114.806 334.499 115.159 334.246 115.613C334.007 116.055 333.887 116.578 333.887 117.184V117.562C333.887 118.167 334.026 118.703 334.303 119.17C334.581 119.637 334.972 119.996 335.476 120.249C335.981 120.501 336.561 120.627 337.217 120.627C337.784 120.627 338.295 120.539 338.749 120.362C339.203 120.186 339.607 119.908 339.96 119.53L341.228 120.986C340.774 121.516 340.2 121.926 339.506 122.216C338.825 122.494 338.043 122.632 337.16 122.632ZM355.823 122.689C354.789 122.689 353.836 122.525 352.966 122.197C352.108 121.857 351.358 121.384 350.715 120.778C350.071 120.16 349.573 119.435 349.22 118.603C348.867 117.77 348.69 116.862 348.69 115.878C348.69 114.894 348.867 113.986 349.22 113.154C349.573 112.321 350.071 111.602 350.715 110.997C351.371 110.379 352.134 109.906 353.004 109.578C353.874 109.237 354.827 109.067 355.861 109.067C356.983 109.067 357.992 109.25 358.888 109.616C359.796 109.982 360.559 110.518 361.177 111.224L359.626 112.738C359.109 112.22 358.547 111.842 357.942 111.602C357.349 111.35 356.693 111.224 355.974 111.224C355.281 111.224 354.637 111.337 354.045 111.564C353.452 111.792 352.941 112.113 352.512 112.529C352.083 112.946 351.749 113.438 351.509 114.005C351.282 114.573 351.169 115.197 351.169 115.878C351.169 116.547 351.282 117.165 351.509 117.732C351.749 118.3 352.083 118.798 352.512 119.227C352.941 119.643 353.445 119.965 354.026 120.192C354.606 120.419 355.249 120.532 355.955 120.532C356.611 120.532 357.242 120.431 357.847 120.23C358.465 120.015 359.052 119.662 359.607 119.17L361.007 121.005C360.313 121.56 359.506 121.983 358.585 122.273C357.677 122.55 356.756 122.689 355.823 122.689ZM358.68 120.684V115.727H361.007V121.005L358.68 120.684ZM369.946 122.689C368.129 122.689 366.704 122.178 365.67 121.157C364.648 120.135 364.137 118.659 364.137 116.73V109.256H366.597V116.635C366.597 117.997 366.887 118.987 367.467 119.605C368.06 120.223 368.893 120.532 369.965 120.532C371.037 120.532 371.863 120.223 372.443 119.605C373.023 118.987 373.313 117.997 373.313 116.635V109.256H375.735V116.73C375.735 118.659 375.218 120.135 374.184 121.157C373.162 122.178 371.749 122.689 369.946 122.689ZM381.626 122.5V111.337H377.237V109.256H388.475V111.337H384.086V122.5H381.626ZM394.297 122.689C393.263 122.689 392.273 122.544 391.327 122.254C390.381 121.951 389.63 121.567 389.075 121.1L389.927 119.189C390.456 119.605 391.112 119.952 391.894 120.23C392.676 120.507 393.477 120.646 394.297 120.646C394.991 120.646 395.552 120.57 395.981 120.419C396.41 120.267 396.725 120.066 396.927 119.813C397.129 119.549 397.23 119.252 397.23 118.924C397.23 118.521 397.084 118.199 396.794 117.959C396.504 117.707 396.126 117.512 395.659 117.373C395.205 117.221 394.694 117.083 394.127 116.957C393.572 116.83 393.01 116.685 392.443 116.521C391.888 116.345 391.377 116.124 390.91 115.859C390.456 115.582 390.084 115.216 389.794 114.762C389.504 114.308 389.359 113.728 389.359 113.021C389.359 112.302 389.548 111.646 389.927 111.054C390.318 110.448 390.904 109.969 391.686 109.616C392.481 109.25 393.483 109.067 394.694 109.067C395.489 109.067 396.277 109.168 397.059 109.37C397.841 109.572 398.522 109.862 399.103 110.24L398.327 112.151C397.734 111.798 397.122 111.539 396.492 111.375C395.861 111.199 395.256 111.11 394.675 111.11C393.994 111.11 393.439 111.192 393.01 111.356C392.594 111.52 392.285 111.735 392.083 112C391.894 112.265 391.8 112.567 391.8 112.908C391.8 113.311 391.938 113.639 392.216 113.892C392.506 114.131 392.878 114.32 393.332 114.459C393.799 114.598 394.316 114.737 394.884 114.875C395.451 115.002 396.012 115.147 396.567 115.311C397.135 115.475 397.646 115.689 398.1 115.954C398.567 116.219 398.939 116.578 399.216 117.032C399.506 117.486 399.651 118.06 399.651 118.754C399.651 119.46 399.456 120.116 399.065 120.722C398.686 121.314 398.1 121.794 397.305 122.159C396.511 122.513 395.508 122.689 394.297 122.689Z" fill="white"/>
</svg>
